HIERARCHY
ROOT root
{
	OFFSET 0.000000 0.000000 0.000000
	CHANNELS 6 Xposition Yposition Zposition Zrotation Yrotation Xrotation
	JOINT lhip
	{
		OFFSET 0.058581 -0.082280 -0.017664
		CHANNELS 3 Zrotation Yrotation Xrotation
		JOINT lknee
		{
			OFFSET 0.043451 -0.386469 0.008037
			CHANNELS 3 Zrotation Yrotation Xrotation
			JOINT lankle
			{
				OFFSET -0.014790 -0.426874 -0.037428
				CHANNELS 3 Zrotation Yrotation Xrotation
				JOINT ltoe
				{
					OFFSET 0.041054 -0.060286 0.122042
					CHANNELS 3 Zrotation Yrotation Xrotation
					End Site
					{
						OFFSET 0.000000 0.000000 0.000000
					}
				}
			}
		}
	}
	JOINT rhip
	{
		OFFSET -0.060310 -0.090513 -0.013543
		CHANNELS 3 Zrotation Yrotation Xrotation
		JOINT rknee
		{
			OFFSET -0.043257 -0.383688 -0.004843
			CHANNELS 3 Zrotation Yrotation Xrotation
			JOINT rankle
			{
				OFFSET 0.019056 -0.420046 -0.034562
				CHANNELS 3 Zrotation Yrotation Xrotation
				JOINT rtoe
				{
					OFFSET -0.034840 -0.062106 0.130323
					CHANNELS 3 Zrotation Yrotation Xrotation
					End Site
					{
						OFFSET 0.000000 0.000000 0.000000
					}
				}
			}
		}
	}
	JOINT lowerback
	{
		OFFSET 0.004439 0.124404 -0.038385
		CHANNELS 3 Zrotation Yrotation Xrotation
		JOINT upperback
		{
			OFFSET 0.004488 0.137956 0.026820
			CHANNELS 3 Zrotation Yrotation Xrotation
			JOINT chest
			{
				OFFSET -0.002265 0.056032 0.002855
				CHANNELS 3 Zrotation Yrotation Xrotation
				JOINT lowerneck
				{
					OFFSET -0.013390 0.211636 -0.033468
					CHANNELS 3 Zrotation Yrotation Xrotation
					JOINT upperneck
					{
						OFFSET 0.010113 0.088937 0.050410
						CHANNELS 3 Zrotation Yrotation Xrotation
						End Site
						{
							OFFSET 0.000000 0.000000 0.000000
						}
					}
				}
				JOINT lclavicle
				{
					OFFSET 0.071702 0.114000 -0.018898
					CHANNELS 3 Zrotation Yrotation Xrotation
					JOINT lshoulder
					{
						OFFSET 0.122921 0.045205 -0.019046
						CHANNELS 3 Zrotation Yrotation Xrotation
						JOINT lelbow
						{
							OFFSET 0.255332 -0.015649 -0.022946
							CHANNELS 3 Zrotation Yrotation Xrotation
							JOINT lwrist
							{
								OFFSET 0.265709 0.012698 -0.007375
								CHANNELS 3 Zrotation Yrotation Xrotation
								End Site
								{
									OFFSET 0.000000 0.000000 0.000000
								}
							}
						}
					}
				}
				JOINT rclavicle
				{
					OFFSET -0.082954 0.112472 -0.023707
					CHANNELS 3 Zrotation Yrotation Xrotation
					JOINT rshoulder
					{
						OFFSET -0.113228 0.046853 -0.008472
						CHANNELS 3 Zrotation Yrotation Xrotation
						JOINT relbow
						{
							OFFSET -0.260127 -0.014369 -0.031269
							CHANNELS 3 Zrotation Yrotation Xrotation
							JOINT rwrist
							{
								OFFSET -0.269108 0.006794 -0.006027
								CHANNELS 3 Zrotation Yrotation Xrotation
								End Site
								{
									OFFSET 0.000000 0.000000 0.000000
								}
							}
						}
					}
				}
			}
		}
	}
}
MOTION
Frames: 16
Frame Time: 0.033333
-0.185449 0.637240 0.945488 109.499436 1.130473 87.442267 9.866568 1.637641 -25.689239 -12.721085 -11.712369 32.596149 -1.678777 14.825167 -17.909949 0.000000 -0.000000 0.000000 -5.498037 -6.020739 -2.670552 -4.405773 7.996208 24.188855 1.293276 -21.210053 -27.496682 0.000000 -0.000000 0.000000 0.251285 5.891889 18.470373 -3.744593 -1.932677 6.269006 1.848061 1.487488 -0.853378 -3.985382 18.630499 -12.598404 0.485455 4.694270 -24.040402 3.284476 -6.969495 -8.588725 -4.591426 -2.176686 -10.452869 6.541897 3.929623 -4.610214 -15.754238 -16.619982 30.728068 -9.666072 9.406270 -0.889723 11.203802 -8.171520 -8.593555 -3.399391 -0.702538 7.236804 12.802659 15.455160 11.065346 
-0.184495 0.654146 0.946916 107.304999 1.518764 87.656610 9.685957 2.223154 -25.468231 -12.707063 -10.176579 33.444053 -1.332089 15.072911 -19.097366 0.000000 -0.000000 0.000000 -6.101619 -5.624132 -3.679641 -4.411656 8.976179 25.082358 1.122940 -20.489833 -25.245522 0.000000 -0.000000 0.000000 0.298351 5.874655 18.393582 -3.436195 -1.554537 6.315460 1.724372 1.629698 -0.992616 -3.463327 18.884543 -13.174584 0.423359 4.185486 -23.555384 3.406841 -6.430390 -8.681201 -4.469766 -2.520515 -10.423656 6.273659 3.912663 -4.159683 -15.106925 -16.779079 30.049840 -9.219038 9.189923 -0.459034 10.897487 -7.585015 -8.925835 -3.059244 -0.993925 7.169877 11.439813 15.243200 11.965620 
-0.183253 0.670749 0.949009 105.211581 2.070774 87.819668 9.684586 2.474576 -25.004060 -12.800643 -8.963803 33.855987 -0.715777 15.589061 -19.925313 0.000000 -0.000000 0.000000 -6.544944 -5.262673 -4.957170 -4.202887 9.503115 26.297412 1.135849 -19.603852 -22.686970 0.000000 -0.000000 0.000000 0.401000 5.591098 18.165696 -3.111546 -1.417289 6.651216 1.739562 1.690938 -1.167774 -3.140296 19.170813 -13.284107 0.395323 4.046388 -24.168836 3.467188 -6.100852 -8.626225 -4.335116 -2.200399 -10.603216 6.391106 3.876187 -4.384153 -15.672995 -16.026226 30.264587 -8.872572 9.073197 -0.032366 10.832827 -7.136000 -9.581704 -3.237339 -0.732263 6.397417 12.502318 14.604243 11.902205 
-0.182349 0.686727 0.951240 103.254352 2.703675 87.797545 9.547404 2.763090 -24.498031 -12.698802 -8.002573 34.351413 -0.209657 16.076679 -20.435645 0.000000 -0.000000 0.000000 -6.971546 -4.856704 -6.412085 -3.936782 9.523088 28.017048 0.882206 -18.979396 -19.888950 0.000000 -0.000000 0.000000 0.554860 5.107785 18.325000 -2.683563 -1.343598 6.891905 1.734009 1.729605 -1.465032 -2.546377 19.501646 -12.826094 0.225757 3.766621 -24.577333 3.493607 -5.691208 -8.008145 -4.386096 -1.533633 -10.313528 6.645156 3.340914 -3.524396 -15.900490 -15.813816 30.552130 -8.396728 9.028932 0.604585 11.149488 -7.115451 -9.866966 -3.883181 -0.955847 5.835064 12.625718 14.461736 11.775375 
-0.181480 0.702157 0.953504 101.784448 3.376765 87.881393 9.213276 2.568054 -24.204126 -12.468668 -7.471987 34.741699 0.618151 17.389545 -21.388256 0.000000 -0.000000 0.000000 -7.451549 -4.490662 -8.122615 -3.040780 9.663215 30.521828 0.518341 -18.216606 -16.423490 0.000000 -0.000000 0.000000 0.733260 4.712017 18.339092 -1.977558 -1.403068 7.248632 1.783675 1.643528 -1.739814 -2.010499 19.074981 -12.481440 0.223029 3.459127 -24.718496 2.959671 -5.715757 -7.488220 -3.807946 -0.932460 -10.397398 6.608672 2.917187 -2.753666 -15.185786 -16.362498 30.042385 -7.421449 8.555928 0.539182 11.405138 -7.866884 -10.191047 -4.411982 -1.680768 5.941491 11.318244 14.303535 12.770692 
-0.179678 0.716217 0.955301 101.045802 4.221402 87.796659 8.934678 2.214229 -23.763018 -12.153134 -7.348390 34.944739 1.301276 18.317463 -21.857565 0.000000 -0.000000 0.000000 -7.706132 -4.552940 -9.585812 -2.495486 8.666856 32.730437 -0.150636 -17.900691 -13.309389 0.000000 -0.000000 0.000000 0.941922 4.144121 18.660142 -0.966750 -1.645771 7.422568 1.974037 1.085759 -1.661771 -1.631343 18.841620 -12.993170 0.347733 3.241101 -24.449807 2.176050 -4.966153 -6.390629 -3.954473 -0.573538 -11.024671 7.313102 2.003875 -3.494097 -13.916124 -17.124182 28.673567 -5.748508 7.158128 0.814785 12.967790 -8.485980 -10.943359 -5.881343 -1.372317 4.122295 10.280423 13.664977 12.016022 
-0.177627 0.729318 0.956184 100.228705 5.211617 87.830575 8.760853 1.724698 -23.630663 -11.736795 -7.314682 35.486264 2.263021 19.448137 -21.965657 0.000000 -0.000000 0.000000 -7.829573 -4.293147 -11.482341 -1.549477 7.239763 35.562001 -1.543415 -17.003720 -10.549570 0.000000 -0.000000 0.000000 1.219774 3.345023 19.132072 0.164703 -1.891983 7.143715 2.161078 0.263421 -1.547632 -1.011823 18.358011 -13.088138 0.052394 3.441779 -24.264559 0.779595 -3.376584 -5.079125 -5.530569 0.582267 -11.515394 8.792726 0.820285 -6.387888 -10.153636 -19.348326 24.009272 -3.854842 5.275199 1.168165 16.718213 -8.732418 -10.645943 -6.859080 -0.567507 2.938270 7.290826 13.945732 9.114378 
-0.175076 0.741314 0.956700 98.759727 6.081940 87.628881 8.758143 1.480581 -23.150990 -11.414596 -6.930102 36.151588 2.640690 20.630223 -23.046428 0.000000 -0.000000 0.000000 -7.814683 -3.747739 -13.532403 -0.736331 5.604129 38.678338 -2.311392 -16.978812 -11.832305 0.000000 -0.000000 0.000000 1.382386 2.158058 19.882242 0.977659 -2.185752 6.785175 2.178761 -0.306545 -1.260074 -0.115236 17.971672 -13.349892 0.240751 3.040928 -23.840648 -0.950403 -0.212136 -3.319712 -10.030082 2.425096 -11.259973 10.691347 -1.101787 -6.218904 -8.282694 -20.579421 22.742338 -1.028956 3.375857 1.978027 22.524333 -8.044357 -10.291411 -7.377081 0.310851 2.014937 6.196945 14.022949 6.462888 
-0.172029 0.752917 0.956616 96.106599 6.714422 87.432600 8.758326 1.651116 -22.488135 -10.902082 -6.027595 36.670373 3.288509 21.224063 -23.784748 0.000000 -0.000000 0.000000 -7.743356 -3.179183 -16.271111 -0.831943 3.527595 42.219826 -2.725127 -16.919845 -14.906477 0.000000 -0.000000 0.000000 1.233537 0.945523 20.738805 1.693241 -1.841478 6.088226 2.018826 -0.335917 -0.967985 1.221751 17.489934 -14.010973 -0.034345 2.344456 -22.341090 -2.109537 4.410543 -1.813939 -19.067579 3.070721 -8.076390 11.903397 -0.968439 -3.624319 -6.902208 -18.890483 21.259749 2.700810 0.242081 2.943620 30.122976 -6.241368 -8.572480 -7.831382 1.847633 0.409623 4.200099 13.168405 3.255793 
-0.167795 0.763276 0.956995 92.360464 7.440539 87.373142 8.904918 2.185973 -21.526023 -10.066563 -4.733808 36.454179 3.547915 22.532222 -24.166011 0.000000 -0.000000 0.000000 -7.338517 -2.200355 -19.478839 -1.102477 1.419961 46.287744 -2.855676 -17.372781 -16.980966 0.000000 -0.000000 0.000000 1.248931 0.118894 21.645610 2.348180 -1.429961 4.756740 2.250098 -0.794198 -0.197863 1.812272 16.977946 -13.106841 0.018185 0.647748 -23.025734 -3.764568 7.404658 1.563449 -31.469362 6.959441 -9.226129 11.585416 -2.042860 -6.261435 -6.211371 -18.858377 19.273056 5.867631 -0.430634 3.633747 39.664441 -6.360338 -7.287981 -8.539200 3.618758 -0.879895 2.751312 13.942332 -2.417447 
-0.162880 0.772712 0.957042 88.020765 7.612255 86.853627 8.819800 2.546351 -20.017798 -8.935155 -2.166306 36.237848 4.092399 23.406044 -25.447667 0.000000 -0.000000 0.000000 -7.554419 -2.179437 -22.416510 -1.815544 -0.687092 51.019247 -2.295980 -16.683439 -19.719274 0.000000 -0.000000 0.000000 1.271224 -0.646762 22.362474 2.424768 -0.608043 4.390208 1.563246 -0.862105 -0.114993 3.847904 16.964989 -12.631121 0.025630 -1.631596 -21.872217 -5.603668 13.178305 1.193371 -43.394676 7.637462 -8.246464 10.976405 -2.177517 -8.287033 -7.964806 -18.512532 16.579775 10.140954 -3.553497 3.033143 49.349988 -4.915811 -5.611106 -9.233585 3.369569 -1.563668 3.603625 14.103120 -3.083624 
-0.159891 0.780799 0.954877 84.093735 7.490371 86.923236 8.684584 2.520525 -19.707595 -8.225090 0.752229 36.479844 5.263221 24.297121 -25.860145 0.000000 -0.000000 0.000000 -8.243844 -1.479491 -25.748318 -2.190573 -3.196676 56.191147 -2.582425 -15.831689 -20.982613 0.000000 -0.000000 0.000000 0.802698 -1.065993 22.856319 2.918376 0.612654 3.033922 0.768338 -0.482008 -0.011031 5.715073 14.781678 -11.835383 0.570318 -3.561494 -19.785886 -7.451784 20.393537 0.599533 -54.964873 7.452641 -2.457449 11.686574 -3.781301 -4.921474 -10.298711 -15.417892 13.163424 13.846167 -9.458324 1.155588 59.474426 -5.409018 0.718955 -10.095399 3.092643 -0.510458 4.968371 12.403551 -7.109274 
-0.156732 0.788384 0.951515 80.864952 7.675040 86.734090 8.737314 2.893645 -19.586318 -7.692063 3.136525 37.496909 6.521796 25.103472 -26.657718 0.000000 -0.000000 0.000000 -8.609827 -1.255856 -28.224622 -2.337335 -5.111332 61.578602 -2.512639 -14.597041 -22.575190 0.000000 -0.000000 0.000000 0.464554 -1.735516 22.991225 3.570619 1.046015 1.957611 0.487336 -0.848268 0.231294 8.064653 12.815491 -10.270936 0.153196 -4.967506 -16.971436 -9.267199 26.874212 -0.106701 -64.917195 9.170681 0.184149 12.430063 -3.722970 -6.060651 -16.553762 -11.046274 12.313236 16.642607 -13.165655 1.135192 66.308010 -6.993600 6.651158 -9.041145 3.395854 1.282610 13.178553 12.478604 -11.836052 
-0.152687 0.796350 0.948021 77.749505 8.061527 86.096063 9.044964 4.123890 -19.048459 -7.520317 5.052105 38.548013 7.133061 26.161581 -27.473291 0.000000 -0.000000 0.000000 -8.790121 -0.924290 -29.834086 -2.702071 -6.639037 66.590560 -2.556850 -14.474171 -23.645715 0.000000 -0.000000 0.000000 0.697508 -2.885338 23.492988 3.908262 1.259086 -0.037707 0.371948 -0.893993 1.215033 9.554463 11.063233 -7.762929 0.027575 -6.462041 -15.120223 -8.807717 30.123972 0.241853 -73.125322 11.138545 0.148920 12.594151 -0.364604 -7.514036 -21.744390 -8.811450 9.200475 16.109028 -15.415056 1.040722 70.742339 -9.934068 8.544821 -8.151845 3.121519 4.841392 18.664745 12.418847 -14.147789 
-0.148644 0.803980 0.945010 74.703511 8.120755 85.367916 9.155488 5.035836 -18.151528 -7.736935 6.273582 39.154687 7.215748 27.111915 -28.174222 0.000000 -0.000000 0.000000 -9.352220 -1.171696 -31.192190 -2.657888 -7.628214 71.145845 -2.341355 -14.419616 -25.115835 0.000000 -0.000000 0.000000 1.242816 -3.654148 22.998629 3.887003 1.200801 0.258731 -0.021369 -0.976333 1.369576 10.548068 8.374702 -5.651917 0.333784 -7.297516 -14.151790 -8.096678 30.586793 1.131072 -75.929079 11.648709 0.404559 12.541569 2.355351 -5.844201 -28.893806 -4.394570 8.884033 14.221121 -16.443695 1.630892 71.716730 -11.628661 8.818510 -8.965920 2.973521 7.260655 25.133355 12.275495 -15.156641 
-0.143920 0.810364 0.943993 71.359256 7.890609 84.403713 9.086671 6.167605 -16.487366 -8.055272 7.476626 38.920622 6.969123 28.013784 -28.932845 0.000000 -0.000000 0.000000 -10.115180 -1.396810 -32.224987 -2.495355 -8.207415 74.907541 -2.125971 -14.668666 -26.516061 0.000000 -0.000000 0.000000 2.031492 -4.327370 23.038683 3.193402 1.288480 0.757359 -0.742400 -1.075963 1.463024 11.104068 5.877384 -4.269730 1.463022 -8.472778 -14.795867 -7.890082 30.104806 1.244095 -73.379272 11.895952 -0.798401 14.164961 2.180983 -7.308544 -32.737983 -1.519291 9.762679 12.352163 -16.305332 1.608589 68.788842 -12.153312 7.476653 -10.419952 2.698943 7.891369 28.224213 11.097641 -13.296401 
